<svg width="2672" height="610" viewBox="0 0 2672 610" fill="none" xmlns="http://www.w3.org/2000/svg">
<path d="M577 327C577 482.192 447.834 608 288.5 608C129.166 608 0 482.192 0 327C0 171.808 129.166 46 288.5 46C447.834 46 577 171.808 577 327Z" fill="#011638"/>
<rect width="347.682" height="66.2627" transform="matrix(1 0 -0.353944 0.935266 126.178 149)" fill="#FFE4C4"/>
<rect width="347.682" height="66.2627" transform="matrix(1 0 -0.353944 0.935266 126.318 295.732)" fill="#FFE4C4"/>
<rect width="347.682" height="66.2627" transform="matrix(1 0 -0.353944 0.935266 126.318 441.697)" fill="#FFE4C4"/>
<path d="M666 500V150H886.5V202H720V448H886.5V500H666ZM690.5 346.5V294.5H859V346.5H690.5ZM961.129 500V130H1012.63V500H961.129ZM1198.73 505C1173.07 505 1150.07 499.167 1129.73 487.5C1109.73 475.5 1093.9 459.333 1082.23 439C1070.57 418.333 1064.73 394.833 1064.73 368.5C1064.73 342.167 1070.57 318.833 1082.23 298.5C1093.9 277.833 1109.73 261.667 1129.73 250C1150.07 238 1173.07 232 1198.73 232C1224.07 232 1246.73 238 1266.73 250C1287.07 261.667 1303.07 277.833 1314.73 298.5C1326.4 318.833 1332.23 342.167 1332.23 368.5C1332.23 394.833 1326.4 418.333 1314.73 439C1303.07 459.333 1287.07 475.5 1266.73 487.5C1246.73 499.167 1224.07 505 1198.73 505ZM1198.73 458C1214.4 458 1228.4 454.167 1240.73 446.5C1253.07 438.5 1262.73 427.833 1269.73 414.5C1276.73 400.833 1280.07 385.5 1279.73 368.5C1280.07 351.167 1276.73 335.833 1269.73 322.5C1262.73 308.833 1253.07 298.167 1240.73 290.5C1228.4 282.833 1214.4 279 1198.73 279C1183.07 279 1168.9 283 1156.23 291C1143.9 298.667 1134.23 309.333 1127.23 323C1120.23 336.333 1116.9 351.5 1117.23 368.5C1116.9 385.5 1120.23 400.833 1127.23 414.5C1134.23 427.833 1143.9 438.5 1156.23 446.5C1168.9 454.167 1183.07 458 1198.73 458ZM1579.85 610V437.5H1589.85C1589.85 445.5 1587.18 453.5 1581.85 461.5C1576.52 469.167 1569.35 476.333 1560.35 483C1551.35 489.667 1541.35 495 1530.35 499C1519.35 503 1508.02 505 1496.35 505C1472.68 505 1451.52 499.167 1432.85 487.5C1414.18 475.5 1399.35 459.333 1388.35 439C1377.68 418.333 1372.35 394.833 1372.35 368.5C1372.35 342.167 1377.68 318.833 1388.35 298.5C1399.02 277.833 1413.52 261.667 1431.85 250C1450.52 238 1471.52 232 1494.85 232C1507.85 232 1520.18 234.167 1531.85 238.5C1543.85 242.833 1554.52 248.5 1563.85 255.5C1573.52 262.5 1581.02 270.333 1586.35 279C1592.02 287.333 1594.85 295.833 1594.85 304.5L1579.85 305.5V237H1631.35V610H1579.85ZM1501.85 457.5C1517.52 457.5 1531.35 453.667 1543.35 446C1555.35 438.333 1564.68 427.833 1571.35 414.5C1578.35 401.167 1581.85 385.833 1581.85 368.5C1581.85 351.167 1578.35 335.833 1571.35 322.5C1564.68 308.833 1555.35 298.167 1543.35 290.5C1531.35 282.833 1517.52 279 1501.85 279C1486.18 279 1472.35 283 1460.35 291C1448.35 298.667 1438.85 309.333 1431.85 323C1425.18 336.333 1421.85 351.5 1421.85 368.5C1421.85 385.5 1425.18 400.833 1431.85 414.5C1438.85 427.833 1448.35 438.333 1460.35 446C1472.35 453.667 1486.18 457.5 1501.85 457.5ZM1795.29 505C1776.63 505 1760.29 500.667 1746.29 492C1732.63 483.333 1721.96 471.167 1714.29 455.5C1706.96 439.833 1703.29 421.167 1703.29 399.5V237.5H1754.79V385.5C1754.79 400.833 1757.13 414.167 1761.79 425.5C1766.79 436.5 1773.79 445 1782.79 451C1792.13 457 1803.29 460 1816.29 460C1825.96 460 1834.79 458.5 1842.79 455.5C1850.79 452.167 1857.63 447.667 1863.29 442C1869.29 436.333 1873.96 429.5 1877.29 421.5C1880.63 413.5 1882.29 404.833 1882.29 395.5V237.5H1933.79V500H1882.29V445L1891.29 439C1887.29 451.333 1880.46 462.5 1870.79 472.5C1861.46 482.5 1850.29 490.5 1837.29 496.5C1824.29 502.167 1810.29 505 1795.29 505ZM2014.53 500V237.5H2066.03V500H2014.53ZM2039.53 179.5C2028.53 179.5 2020.03 176.667 2014.03 171C2008.03 165.333 2005.03 157.333 2005.03 147C2005.03 137.333 2008.03 129.5 2014.03 123.5C2020.36 117.5 2028.86 114.5 2039.53 114.5C2050.53 114.5 2059.03 117.333 2065.03 123C2071.03 128.667 2074.03 136.667 2074.03 147C2074.03 156.667 2070.86 164.5 2064.53 170.5C2058.53 176.5 2050.19 179.5 2039.53 179.5ZM2319.69 500L2234.69 389.5L2227.19 380L2116.69 237.5H2181.69L2265.19 346.5L2273.69 357.5L2382.69 500H2319.69ZM2117.19 500L2220.69 365L2251.19 401.5L2178.19 500H2117.19ZM2276.69 373L2248.19 337L2312.69 237.5H2373.69L2276.69 373Z" fill="#E16675"/>
</svg>
